<svg version="1.1" id="Layer_1" xmlns="http://www.w3.org/2000/svg" xmlns:xlink="http://www.w3.org/1999/xlink" x="0px" y="0px"
	 width="100%" viewBox="0 0 2000 2000" enable-background="new 0 0 2000 2000" xml:space="preserve">
<path fill="#FFFFFF" opacity="1.000000" stroke="none" 
	d="
M2001.000000,1100.000000 
	C2001.000000,1400.318359 2001.000000,1700.636719 2001.000000,2000.977539 
	C1334.381470,2000.977539 667.763062,2000.977539 1.072278,2000.977539 
	C1.072278,1334.414795 1.072278,667.829468 1.072278,1.122107 
	C667.552002,1.122107 1334.104126,1.122107 2001.000000,1.122107 
	C2001.000000,366.368164 2001.000000,731.736450 2000.690674,1097.343018 
	C1994.932983,1079.916504 1989.484741,1062.251831 1984.108643,1044.821411 
	C1979.928101,1046.499878 1976.474365,1048.159058 1972.854980,1049.286377 
	C1963.453125,1052.214722 1956.419067,1048.460083 1953.485474,1039.073853 
	C1952.795654,1036.866699 1952.105713,1034.535767 1952.096191,1032.258911 
	C1951.996216,1008.298340 1952.034546,984.337097 1952.034546,959.827759 
	C1965.358643,959.827759 1979.094604,959.827759 1992.968506,959.827759 
	C1992.968506,942.175720 1992.968506,925.070312 1992.968506,907.343506 
	C1979.068359,907.343506 1965.341187,907.343506 1951.225342,907.343506 
	C1951.225342,882.288147 1951.225342,857.851501 1951.225342,833.490723 
	C1928.240112,833.490723 1905.667603,833.490723 1882.730469,833.490723 
	C1882.730469,858.255859 1882.730469,882.694458 1882.730469,907.727112 
	C1872.993530,907.727112 1863.615967,907.727112 1854.424805,907.727112 
	C1854.424805,925.403809 1854.424805,942.479370 1854.424805,959.956787 
	C1864.010742,959.956787 1873.262451,959.956787 1882.888428,959.956787 
	C1882.888428,961.978149 1882.888428,963.612976 1882.888550,965.247742 
	C1882.888794,988.236389 1882.601196,1011.230408 1883.026611,1034.211182 
	C1883.204224,1043.801880 1883.930786,1053.588989 1886.091187,1062.895996 
	C1891.650757,1086.847046 1905.196655,1103.916748 1930.290405,1109.706055 
	C1944.836060,1113.061890 1959.498657,1112.713623 1973.861938,1109.271729 
	C1983.117065,1107.053955 1991.967896,1103.148804 2001.000000,1100.000000 
M685.554565,1663.495117 
	C685.554565,1532.928711 685.554565,1402.362427 685.554565,1271.819092 
	C549.338440,1271.819092 413.844910,1271.819092 278.358459,1271.819092 
	C278.358459,1407.692017 278.358459,1543.101562 278.358459,1678.700928 
	C414.115326,1678.700928 549.630249,1678.700928 685.554260,1678.700928 
	C685.554260,1673.771973 685.554260,1669.132202 685.554565,1663.495117 
M365.577423,361.058289 
	C345.318237,374.596100 327.475098,390.729492 313.142914,410.516174 
	C278.878143,457.821472 266.344849,510.524750 276.438629,567.911377 
	C285.092987,617.114685 309.175354,658.053101 348.119568,689.581909 
	C394.136597,726.836609 447.105469,741.439941 505.530182,733.559875 
	C557.698303,726.523621 600.950562,701.834229 634.227966,661.021912 
	C673.360229,613.029053 687.669739,557.711304 677.512695,496.848846 
	C669.038330,446.068787 643.816772,404.146820 603.437439,372.214813 
	C559.477539,337.451355 508.911926,323.482666 453.263031,329.409698 
	C421.878601,332.752350 392.795837,343.519745 365.577423,361.058289 
M342.961182,1199.564331 
	C385.395325,1220.202148 427.829498,1240.839844 471.200714,1261.933350 
	C470.331848,1249.910034 469.626862,1239.148438 468.762451,1228.399780 
	C466.896179,1205.193115 464.900543,1181.996948 463.048309,1158.789185 
	C461.553070,1140.054199 460.254974,1121.303711 458.752350,1102.569336 
	C456.917511,1079.693604 454.904083,1056.832397 453.073578,1033.956299 
	C451.574402,1015.221436 450.301361,996.468323 448.799072,977.733704 
	C446.964752,954.858459 444.932007,931.999146 443.104706,909.123413 
	C441.581604,890.055908 440.286957,870.970215 438.791321,851.900452 
	C436.541748,823.218079 434.222198,794.541138 431.894348,765.865051 
	C431.242188,757.831421 430.456512,749.808533 429.663361,741.019287 
	C286.734558,838.521362 144.384293,935.628723 1.147863,1033.340576 
	C115.465614,1088.917847 228.886841,1144.059326 342.961182,1199.564331 
M1083.095337,1106.167480 
	C1087.479736,1105.104736 1084.001221,1102.591919 1083.552734,1101.477051 
	C1041.861572,997.842346 999.999084,894.276733 958.293152,790.648010 
	C956.902710,787.193237 955.161987,786.393188 951.755493,786.419128 
	C932.425049,786.566406 913.091919,786.590271 893.762268,786.399902 
	C890.225952,786.365173 888.570190,787.444946 887.250854,790.723389 
	C847.219360,890.195496 807.085815,989.626526 766.972534,1089.065674 
	C764.752380,1094.569336 762.568237,1100.087524 760.252380,1105.886841 
	C786.751648,1105.886841 812.665649,1105.886841 838.502563,1105.886841 
	C846.431824,1084.469849 854.260071,1063.325806 862.046326,1042.294922 
	C902.798889,1042.294922 943.113342,1042.294922 983.581543,1042.294922 
	C984.140869,1043.720459 984.700439,1045.082520 985.212830,1046.462158 
	C992.091248,1064.981079 999.050537,1083.470825 1005.751526,1102.053833 
	C1006.889709,1105.210205 1008.240234,1106.292358 1011.684692,1106.265503 
	C1035.181030,1106.081909 1058.679688,1106.169189 1083.095337,1106.167480 
M1498.158325,902.169983 
	C1476.498413,900.465820 1455.558838,902.637085 1436.586792,914.310608 
	C1431.283569,917.573792 1426.432007,921.571045 1420.831299,925.623718 
	C1420.831299,874.483826 1420.831299,823.777344 1420.831299,773.112183 
	C1397.729004,773.112183 1375.139648,773.112183 1352.380737,773.112183 
	C1352.380737,884.148743 1352.380737,994.902954 1352.380737,1105.912109 
	C1374.973877,1105.912109 1397.354370,1105.912109 1420.265869,1105.912109 
	C1420.265869,1098.490845 1420.265869,1091.312988 1420.265869,1083.457764 
	C1421.535645,1084.549561 1422.211060,1085.016479 1422.748413,1085.608887 
	C1455.105103,1121.265503 1513.764282,1117.962891 1546.088135,1091.637573 
	C1586.055420,1059.087036 1593.281982,1004.264771 1576.426880,963.643250 
	C1562.194214,929.342407 1536.987061,907.437256 1498.158325,902.169983 
M1627.329102,1074.170898 
	C1631.070068,1077.727051 1634.609985,1081.527832 1638.586670,1084.797241 
	C1656.696533,1099.685547 1677.674927,1107.764526 1700.827637,1110.522095 
	C1735.079346,1114.601196 1767.467529,1110.019531 1796.821655,1090.440674 
	C1831.519287,1067.297852 1848.247559,1024.308716 1838.378662,983.789978 
	C1829.903564,948.994324 1807.369263,926.352844 1775.791504,912.159363 
	C1746.257324,898.884460 1715.265015,898.527405 1684.370117,906.337158 
	C1658.631104,912.843567 1637.369385,927.063049 1621.115234,948.310303 
	C1594.829590,982.671021 1596.316162,1040.732788 1627.329102,1074.170898 
M1164.647217,1108.957031 
	C1192.382568,1113.115723 1220.035034,1113.409302 1247.503540,1106.958130 
	C1266.299072,1102.543823 1282.966309,1094.491455 1294.360840,1078.109497 
	C1304.786499,1063.120117 1308.816895,1045.981445 1309.061157,1028.127197 
	C1309.601318,988.654297 1309.494507,949.172546 1309.633057,909.694397 
	C1309.635254,909.083618 1309.399048,908.472046 1309.250488,907.744873 
	C1286.434326,907.744873 1263.852661,907.744873 1240.996948,907.744873 
	C1240.996948,909.815796 1240.997559,911.632385 1240.996704,913.448975 
	C1240.982178,944.268250 1241.174683,975.089966 1240.814819,1005.905212 
	C1240.718506,1014.154907 1239.455811,1022.490723 1237.805664,1030.599243 
	C1235.325195,1042.788696 1228.149292,1051.738037 1215.702271,1054.312256 
	C1208.213623,1055.860962 1200.159058,1055.794312 1192.485229,1055.085205 
	C1178.031616,1053.749512 1169.205933,1045.041382 1166.110596,1031.117432 
	C1164.353882,1023.215454 1163.146240,1015.027588 1163.042969,1006.951172 
	C1162.666260,977.469177 1162.857788,947.979980 1162.835815,918.493469 
	C1162.833252,915.020508 1162.835449,911.547546 1162.835449,907.795532 
	C1139.773560,907.795532 1117.045898,907.795532 1094.246216,907.795532 
	C1094.181030,908.923523 1094.091431,909.749084 1094.091309,910.574646 
	C1094.086182,946.558350 1093.882202,982.543945 1094.225342,1018.524414 
	C1094.319946,1028.458740 1095.323853,1038.514526 1097.172852,1048.275513 
	C1101.448364,1070.847656 1112.630127,1089.077271 1134.128052,1098.967529 
	C1143.537720,1103.296509 1153.882080,1105.594116 1164.647217,1108.957031 
z"/>
<path fill="#010101" opacity="1.000000" stroke="none" 
	d="
M2001.000000,1099.666748 
	C1991.967896,1103.148804 1983.117065,1107.053955 1973.861938,1109.271729 
	C1959.498657,1112.713623 1944.836060,1113.061890 1930.290405,1109.706055 
	C1905.196655,1103.916748 1891.650757,1086.847046 1886.091187,1062.895996 
	C1883.930786,1053.588989 1883.204224,1043.801880 1883.026611,1034.211182 
	C1882.601196,1011.230408 1882.888794,988.236389 1882.888550,965.247742 
	C1882.888428,963.612976 1882.888428,961.978149 1882.888428,959.956787 
	C1873.262451,959.956787 1864.010742,959.956787 1854.424805,959.956787 
	C1854.424805,942.479370 1854.424805,925.403809 1854.424805,907.727112 
	C1863.615967,907.727112 1872.993530,907.727112 1882.730469,907.727112 
	C1882.730469,882.694458 1882.730469,858.255859 1882.730469,833.490723 
	C1905.667603,833.490723 1928.240112,833.490723 1951.225342,833.490723 
	C1951.225342,857.851501 1951.225342,882.288147 1951.225342,907.343506 
	C1965.341187,907.343506 1979.068359,907.343506 1992.968506,907.343506 
	C1992.968506,925.070312 1992.968506,942.175720 1992.968506,959.827759 
	C1979.094604,959.827759 1965.358643,959.827759 1952.034546,959.827759 
	C1952.034546,984.337097 1951.996216,1008.298340 1952.096191,1032.258911 
	C1952.105713,1034.535767 1952.795654,1036.866699 1953.485474,1039.073853 
	C1956.419067,1048.460083 1963.453125,1052.214722 1972.854980,1049.286377 
	C1976.474365,1048.159058 1979.928101,1046.499878 1984.108643,1044.821411 
	C1989.484741,1062.251831 1994.932983,1079.916504 2000.690674,1097.790527 
	C2001.000000,1098.444458 2001.000000,1098.888916 2001.000000,1099.666748 
z"/>
<path fill="#FF3131" opacity="1.000000" stroke="none" 
	d="
M685.554443,1663.993774 
	C685.554260,1669.132202 685.554260,1673.771973 685.554260,1678.700928 
	C549.630249,1678.700928 414.115326,1678.700928 278.358459,1678.700928 
	C278.358459,1543.101562 278.358459,1407.692017 278.358459,1271.819092 
	C413.844910,1271.819092 549.338440,1271.819092 685.554565,1271.819092 
	C685.554565,1402.362427 685.554565,1532.928711 685.554443,1663.993774 
z"/>
<path fill="#5170FF" opacity="1.000000" stroke="none" 
	d="
M365.879395,360.860138 
	C392.795837,343.519745 421.878601,332.752350 453.263031,329.409698 
	C508.911926,323.482666 559.477539,337.451355 603.437439,372.214813 
	C643.816772,404.146820 669.038330,446.068787 677.512695,496.848846 
	C687.669739,557.711304 673.360229,613.029053 634.227966,661.021912 
	C600.950562,701.834229 557.698303,726.523621 505.530182,733.559875 
	C447.105469,741.439941 394.136597,726.836609 348.119568,689.581909 
	C309.175354,658.053101 285.092987,617.114685 276.438629,567.911377 
	C266.344849,510.524750 278.878143,457.821472 313.142914,410.516174 
	C327.475098,390.729492 345.318237,374.596100 365.879395,360.860138 
z"/>
<path fill="#FFDE59" opacity="1.000000" stroke="none" 
	d="
M342.634644,1199.382568 
	C228.886841,1144.059326 115.465614,1088.917847 1.147863,1033.340576 
	C144.384293,935.628723 286.734558,838.521362 429.663361,741.019287 
	C430.456512,749.808533 431.242188,757.831421 431.894348,765.865051 
	C434.222198,794.541138 436.541748,823.218079 438.791321,851.900452 
	C440.286957,870.970215 441.581604,890.055908 443.104706,909.123413 
	C444.932007,931.999146 446.964752,954.858459 448.799072,977.733704 
	C450.301361,996.468323 451.574402,1015.221436 453.073578,1033.956299 
	C454.904083,1056.832397 456.917511,1079.693604 458.752350,1102.569336 
	C460.254974,1121.303711 461.553070,1140.054199 463.048309,1158.789185 
	C464.900543,1181.996948 466.896179,1205.193115 468.762451,1228.399780 
	C469.626862,1239.148438 470.331848,1249.910034 471.200714,1261.933350 
	C427.829498,1240.839844 385.395325,1220.202148 342.634644,1199.382568 
z"/>
<path fill="#010101" opacity="1.000000" stroke="none" 
	d="
M1082.636475,1106.168213 
	C1058.679688,1106.169189 1035.181030,1106.081909 1011.684692,1106.265503 
	C1008.240234,1106.292358 1006.889709,1105.210205 1005.751526,1102.053833 
	C999.050537,1083.470825 992.091248,1064.981079 985.212830,1046.462158 
	C984.700439,1045.082520 984.140869,1043.720459 983.581543,1042.294922 
	C943.113342,1042.294922 902.798889,1042.294922 862.046326,1042.294922 
	C854.260071,1063.325806 846.431824,1084.469849 838.502563,1105.886841 
	C812.665649,1105.886841 786.751648,1105.886841 760.252380,1105.886841 
	C762.568237,1100.087524 764.752380,1094.569336 766.972534,1089.065674 
	C807.085815,989.626526 847.219360,890.195496 887.250854,790.723389 
	C888.570190,787.444946 890.225952,786.365173 893.762268,786.399902 
	C913.091919,786.590271 932.425049,786.566406 951.755493,786.419128 
	C955.161987,786.393188 956.902710,787.193237 958.293152,790.648010 
	C999.999084,894.276733 1041.861572,997.842346 1083.552734,1101.477051 
	C1084.001221,1102.591919 1087.479736,1105.104736 1082.636475,1106.168213 
M891.795044,978.165405 
	C913.907715,978.165405 936.020386,978.165405 958.882202,978.165405 
	C946.897949,946.923279 935.128174,916.240295 922.867188,884.276672 
	C910.565125,916.353027 898.793579,947.046021 886.858582,978.165344 
	C888.571899,978.165344 889.725708,978.165344 891.795044,978.165405 
z"/>
<path fill="#010101" opacity="1.000000" stroke="none" 
	d="
M1498.606201,902.244873 
	C1536.987061,907.437256 1562.194214,929.342407 1576.426880,963.643250 
	C1593.281982,1004.264771 1586.055420,1059.087036 1546.088135,1091.637573 
	C1513.764282,1117.962891 1455.105103,1121.265503 1422.748413,1085.608887 
	C1422.211060,1085.016479 1421.535645,1084.549561 1420.265869,1083.457764 
	C1420.265869,1091.312988 1420.265869,1098.490845 1420.265869,1105.912109 
	C1397.354370,1105.912109 1374.973877,1105.912109 1352.380737,1105.912109 
	C1352.380737,994.902954 1352.380737,884.148743 1352.380737,773.112183 
	C1375.139648,773.112183 1397.729004,773.112183 1420.831299,773.112183 
	C1420.831299,823.777344 1420.831299,874.483826 1420.831299,925.623718 
	C1426.432007,921.571045 1431.283569,917.573792 1436.586792,914.310608 
	C1455.558838,902.637085 1476.498413,900.465820 1498.606201,902.244873 
M1474.973145,1052.852295 
	C1477.059937,1052.318604 1479.181152,1051.891846 1481.228271,1051.234619 
	C1501.643311,1044.679932 1513.614624,1025.792725 1511.785278,1003.090515 
	C1509.988037,980.786743 1494.737549,963.830078 1473.648682,960.687439 
	C1451.142090,957.333496 1430.993408,968.087769 1422.824707,987.814758 
	C1414.342896,1008.298035 1420.429199,1032.142090 1437.525146,1044.743652 
	C1448.458252,1052.802490 1460.965698,1054.308228 1474.973145,1052.852295 
z"/>
<path fill="#010101" opacity="1.000000" stroke="none" 
	d="
M1627.112793,1073.889282 
	C1596.316162,1040.732788 1594.829590,982.671021 1621.115234,948.310303 
	C1637.369385,927.063049 1658.631104,912.843567 1684.370117,906.337158 
	C1715.265015,898.527405 1746.257324,898.884460 1775.791504,912.159363 
	C1807.369263,926.352844 1829.903564,948.994324 1838.378662,983.789978 
	C1848.247559,1024.308716 1831.519287,1067.297852 1796.821655,1090.440674 
	C1767.467529,1110.019531 1735.079346,1114.601196 1700.827637,1110.522095 
	C1677.674927,1107.764526 1656.696533,1099.685547 1638.586670,1084.797241 
	C1634.609985,1081.527832 1631.070068,1077.727051 1627.112793,1073.889282 
M1684.510376,978.069702 
	C1673.349243,994.313171 1672.266602,1011.779480 1680.369873,1029.177612 
	C1687.830811,1045.196655 1701.684692,1052.728394 1719.295410,1053.290527 
	C1737.066406,1053.858032 1751.881226,1047.865479 1761.173828,1032.252319 
	C1770.733398,1016.190735 1770.943726,999.120911 1761.898804,982.823425 
	C1745.807983,953.830872 1704.308350,952.518250 1684.510376,978.069702 
z"/>
<path fill="#010101" opacity="1.000000" stroke="none" 
	d="
M1164.224609,1108.885620 
	C1153.882080,1105.594116 1143.537720,1103.296509 1134.128052,1098.967529 
	C1112.630127,1089.077271 1101.448364,1070.847656 1097.172852,1048.275513 
	C1095.323853,1038.514526 1094.319946,1028.458740 1094.225342,1018.524414 
	C1093.882202,982.543945 1094.086182,946.558350 1094.091309,910.574646 
	C1094.091431,909.749084 1094.181030,908.923523 1094.246216,907.795532 
	C1117.045898,907.795532 1139.773560,907.795532 1162.835449,907.795532 
	C1162.835449,911.547546 1162.833252,915.020508 1162.835815,918.493469 
	C1162.857788,947.979980 1162.666260,977.469177 1163.042969,1006.951172 
	C1163.146240,1015.027588 1164.353882,1023.215454 1166.110596,1031.117432 
	C1169.205933,1045.041382 1178.031616,1053.749512 1192.485229,1055.085205 
	C1200.159058,1055.794312 1208.213623,1055.860962 1215.702271,1054.312256 
	C1228.149292,1051.738037 1235.325195,1042.788696 1237.805664,1030.599243 
	C1239.455811,1022.490723 1240.718506,1014.154907 1240.814819,1005.905212 
	C1241.174683,975.089966 1240.982178,944.268250 1240.996704,913.448975 
	C1240.997559,911.632385 1240.996948,909.815796 1240.996948,907.744873 
	C1263.852661,907.744873 1286.434326,907.744873 1309.250488,907.744873 
	C1309.399048,908.472046 1309.635254,909.083618 1309.633057,909.694397 
	C1309.494507,949.172546 1309.601318,988.654297 1309.061157,1028.127197 
	C1308.816895,1045.981445 1304.786499,1063.120117 1294.360840,1078.109497 
	C1282.966309,1094.491455 1266.299072,1102.543823 1247.503540,1106.958130 
	C1220.035034,1113.409302 1192.382568,1113.115723 1164.224609,1108.885620 
z"/>
<path fill="#FEFEFE" opacity="1.000000" stroke="none" 
	d="
M891.337280,978.165405 
	C889.725708,978.165344 888.571899,978.165344 886.858582,978.165344 
	C898.793579,947.046021 910.565125,916.353027 922.867188,884.276672 
	C935.128174,916.240295 946.897949,946.923279 958.882202,978.165405 
	C936.020386,978.165405 913.907715,978.165405 891.337280,978.165405 
z"/>
<path fill="#FEFEFE" opacity="1.000000" stroke="none" 
	d="
M1474.520264,1052.891602 
	C1460.965698,1054.308228 1448.458252,1052.802490 1437.525146,1044.743652 
	C1420.429199,1032.142090 1414.342896,1008.298035 1422.824707,987.814758 
	C1430.993408,968.087769 1451.142090,957.333496 1473.648682,960.687439 
	C1494.737549,963.830078 1509.988037,980.786743 1511.785278,1003.090515 
	C1513.614624,1025.792725 1501.643311,1044.679932 1481.228271,1051.234619 
	C1479.181152,1051.891846 1477.059937,1052.318604 1474.520264,1052.891602 
z"/>
<path fill="#FEFEFE" opacity="1.000000" stroke="none" 
	d="
M1684.734131,977.788940 
	C1704.308350,952.518250 1745.807983,953.830872 1761.898804,982.823425 
	C1770.943726,999.120911 1770.733398,1016.190735 1761.173828,1032.252319 
	C1751.881226,1047.865479 1737.066406,1053.858032 1719.295410,1053.290527 
	C1701.684692,1052.728394 1687.830811,1045.196655 1680.369873,1029.177612 
	C1672.266602,1011.779480 1673.349243,994.313171 1684.734131,977.788940 
z"/>
</svg>